<svg xmlns="http://www.w3.org/2000/svg" xmlns:xlink="http://www.w3.org/1999/xlink" width="500" zoomAndPan="magnify" viewBox="0 0 375 374.999991" height="500" preserveAspectRatio="xMidYMid meet" version="1.0"><defs><g/><clipPath id="6f6a3c0e82"><path d="M 40.847656 167.601562 L 334.152344 167.601562 L 334.152344 197.558594 L 40.847656 197.558594 Z M 40.847656 167.601562 " clip-rule="nonzero"/></clipPath></defs><g fill="#231f20" fill-opacity="1"><g transform="translate(15.602347, 218.249986)"><g><path d="M 33.839844 -81 L 3.839844 -81 L 3.839844 -80.28125 L 10.320312 -74.039062 L 10.320312 -6.960938 L 3.839844 -0.71875 L 3.839844 0 L 34.078125 0 C 68.398438 0 78.238281 -23.28125 78.238281 -42.480469 C 78.238281 -68.28125 63.238281 -81 33.839844 -81 Z M 33.71875 -2.398438 L 33.71875 -78.839844 L 34.320312 -78.839844 C 49.558594 -78.839844 53.519531 -67.441406 53.519531 -40.558594 C 53.519531 -12.238281 49.320312 -2.398438 36 -2.398438 Z M 33.71875 -2.398438 "/></g></g></g><g fill="#231f20" fill-opacity="1"><g transform="translate(93.24238, 218.249986)"><g><path d="M 24.121094 -81 L 24.121094 -80.28125 L 29.28125 -65.761719 L 0.839844 -0.71875 L 0.839844 0 L 31.558594 0 L 31.558594 -0.71875 C 26.160156 -6.839844 23.160156 -16.679688 22.921875 -28.078125 L 42.601562 -28.078125 L 49.800781 -6.960938 L 43.679688 -0.71875 L 43.679688 0 L 76.199219 0 L 76.199219 -0.71875 L 48.839844 -81 Z M 22.921875 -30.238281 C 23.160156 -37.921875 24.601562 -46.320312 27.480469 -54.601562 L 30.238281 -62.398438 L 30.960938 -62.398438 L 41.878906 -30.238281 Z M 22.921875 -30.238281 "/></g></g></g><g fill="#231f20" fill-opacity="1"><g transform="translate(166.922413, 218.249986)"><g><path d="M 40.558594 -80.28125 C 56.878906 -69 55.921875 -45.359375 51.480469 -35.640625 L 48.960938 -28.441406 L 48.480469 -28.441406 L 29.398438 -74.039062 L 35.398438 -80.28125 L 35.398438 -81 L 0.839844 -81 L 0.839844 -80.28125 L 37.199219 1.800781 L 38.519531 1.800781 L 73.800781 -80.28125 L 73.800781 -81 L 40.558594 -81 Z M 40.558594 -80.28125 "/></g></g></g><g fill="#231f20" fill-opacity="1"><g transform="translate(238.32244, 218.249986)"><g><path d="M 9.960938 -7.441406 L 3.839844 -0.71875 L 3.839844 0 L 39.601562 0 L 39.601562 -0.71875 L 33.480469 -7.441406 L 33.480469 -73.558594 L 39.601562 -80.28125 L 39.601562 -81 L 3.839844 -81 L 3.839844 -80.28125 L 9.960938 -73.558594 Z M 9.960938 -7.441406 "/></g></g></g><g fill="#231f20" fill-opacity="1"><g transform="translate(278.162457, 218.249986)"><g><path d="M 33.839844 -81 L 3.839844 -81 L 3.839844 -80.28125 L 10.320312 -74.039062 L 10.320312 -6.960938 L 3.839844 -0.71875 L 3.839844 0 L 34.078125 0 C 68.398438 0 78.238281 -23.28125 78.238281 -42.480469 C 78.238281 -68.28125 63.238281 -81 33.839844 -81 Z M 33.71875 -2.398438 L 33.71875 -78.839844 L 34.320312 -78.839844 C 49.558594 -78.839844 53.519531 -67.441406 53.519531 -40.558594 C 53.519531 -12.238281 49.320312 -2.398438 36 -2.398438 Z M 33.71875 -2.398438 "/></g></g></g><g clip-path="url(#6f6a3c0e82)"><path fill="#fbfaf9" d="M 40.847656 167.601562 L 334.152344 167.601562 L 334.152344 197.558594 L 40.847656 197.558594 Z M 40.847656 167.601562 " fill-opacity="1" fill-rule="nonzero"/></g><g fill="#231f20" fill-opacity="1"><g transform="translate(103.279703, 185.205177)"><g><path d="M 0.628906 0 L 2.316406 0 L 2.316406 -7.097656 L 2.339844 -7.097656 L 6.21875 0 L 7.964844 0 L 11.816406 -7.097656 L 11.84375 -7.097656 L 11.84375 0 L 13.527344 0 L 13.527344 -8.921875 L 11.074219 -8.921875 L 7.085938 -1.574219 L 7.074219 -1.574219 L 3.058594 -8.921875 L 0.628906 -8.921875 Z M 0.628906 0 "/></g></g></g><g fill="#231f20" fill-opacity="1"><g transform="translate(127.494095, 185.205177)"><g><path d="M 0.628906 0 L 9.628906 0 L 9.628906 -1.269531 L 2.328125 -1.269531 L 2.328125 -4.003906 L 9 -4.003906 L 9 -5.171875 L 2.328125 -5.171875 L 2.328125 -7.640625 L 9.5 -7.640625 L 9.5 -8.921875 L 0.628906 -8.921875 Z M 0.628906 0 "/></g></g></g><g fill="#231f20" fill-opacity="1"><g transform="translate(147.433261, 185.205177)"><g><path d="M 5.75 0.300781 C 8.53125 0.300781 10.394531 -0.855469 10.394531 -2.566406 C 10.394531 -4.003906 9.25 -4.769531 6.59375 -5.132812 L 4.503906 -5.425781 C 3.109375 -5.613281 2.515625 -5.964844 2.515625 -6.570312 C 2.515625 -7.386719 3.625 -7.953125 5.171875 -7.953125 C 6.71875 -7.953125 8.140625 -7.324219 8.835938 -6.429688 L 9.652344 -7.449219 C 8.859375 -8.496094 7.136719 -9.226562 5.160156 -9.226562 C 2.605469 -9.226562 0.792969 -8.179688 0.792969 -6.457031 C 0.792969 -5.070312 1.785156 -4.367188 4.117188 -4.066406 L 6.230469 -3.738281 C 7.941406 -3.5 8.671875 -3.082031 8.671875 -2.417969 C 8.671875 -1.597656 7.539062 -0.996094 5.839844 -0.996094 C 3.761719 -0.996094 1.851562 -1.875 1.195312 -3.144531 L 0.25 -2.140625 C 1.09375 -0.703125 3.273438 0.300781 5.75 0.300781 Z M 5.75 0.300781 "/></g></g></g><g fill="#231f20" fill-opacity="1"><g transform="translate(168.139455, 185.205177)"><g><path d="M 8.785156 1.722656 C 7.867188 1.722656 7.300781 1.285156 7.300781 0.566406 L 7.300781 0.300781 C 10.660156 0.0898438 12.898438 -1.785156 12.898438 -4.457031 C 12.898438 -7.273438 10.382812 -9.238281 6.683594 -9.238281 C 2.996094 -9.238281 0.476562 -7.273438 0.476562 -4.457031 C 0.476562 -1.8125 2.65625 0.0507812 5.941406 0.289062 L 5.941406 0.730469 C 5.941406 2.078125 6.960938 2.894531 8.59375 2.894531 C 9.980469 2.894531 11.113281 2.339844 11.730469 1.398438 L 10.988281 0.617188 C 10.445312 1.382812 9.640625 1.722656 8.785156 1.722656 Z M 2.226562 -4.457031 C 2.226562 -6.46875 4.050781 -7.867188 6.683594 -7.867188 C 9.3125 -7.867188 11.148438 -6.46875 11.148438 -4.457031 C 11.148438 -2.441406 9.3125 -1.042969 6.683594 -1.042969 C 4.050781 -1.042969 2.226562 -2.441406 2.226562 -4.457031 Z M 2.226562 -4.457031 "/></g></g></g><g fill="#231f20" fill-opacity="1"><g transform="translate(191.574242, 185.205177)"><g><path d="M 5.652344 0.289062 C 8.785156 0.289062 10.808594 -1.269531 10.808594 -4.066406 L 10.808594 -8.921875 L 9.0625 -8.921875 L 9.0625 -4.117188 C 9.0625 -2.113281 7.714844 -1.109375 5.664062 -1.109375 C 3.625 -1.109375 2.265625 -2.113281 2.265625 -4.117188 L 2.265625 -8.921875 L 0.503906 -8.921875 L 0.503906 -4.066406 C 0.503906 -1.269531 2.53125 0.289062 5.652344 0.289062 Z M 5.652344 0.289062 "/></g></g></g><g fill="#231f20" fill-opacity="1"><g transform="translate(212.94686, 185.205177)"><g><path d="M 0.628906 0 L 2.367188 0 L 2.367188 -8.921875 L 0.628906 -8.921875 Z M 0.628906 0 "/></g></g></g><g fill="#231f20" fill-opacity="1"><g transform="translate(226.007944, 185.205177)"><g><path d="M 4.078125 0 L 5.828125 0 L 5.828125 -7.550781 L 9.828125 -7.550781 L 9.828125 -8.921875 L 0.0742188 -8.921875 L 0.0742188 -7.550781 L 4.078125 -7.550781 Z M 4.078125 0 "/></g></g></g><g fill="#231f20" fill-opacity="1"><g transform="translate(245.972253, 185.205177)"><g><path d="M 0.628906 0 L 2.367188 0 L 2.367188 -8.921875 L 0.628906 -8.921875 Z M 0.628906 0 "/></g></g></g><g fill="#231f20" fill-opacity="1"><g transform="translate(259.033337, 185.205177)"><g><path d="M 6.632812 0.289062 C 9.527344 0.289062 11.753906 -1.042969 12.359375 -3.144531 L 10.734375 -3.523438 C 10.28125 -2.027344 8.707031 -1.070312 6.65625 -1.070312 C 3.953125 -1.070312 2.226562 -2.390625 2.226562 -4.457031 C 2.226562 -6.519531 3.800781 -7.839844 6.265625 -7.839844 C 8.054688 -7.839844 9.453125 -6.996094 9.878906 -5.664062 L 11.464844 -6.128906 C 10.808594 -8.003906 8.773438 -9.199219 6.230469 -9.199219 C 2.707031 -9.199219 0.476562 -7.351562 0.476562 -4.457031 C 0.476562 -1.535156 2.871094 0.289062 6.632812 0.289062 Z M 6.632812 0.289062 "/></g></g></g></svg>