<svg xmlns="http://www.w3.org/2000/svg" xmlns:xlink="http://www.w3.org/1999/xlink" width="500" zoomAndPan="magnify" viewBox="0 0 375 374.999991" height="500" preserveAspectRatio="xMidYMid meet" version="1.0"><defs><g/><clipPath id="122ff59f7f"><path d="M 40.847656 157.542969 L 334.152344 157.542969 L 334.152344 187.5 L 40.847656 187.5 Z M 40.847656 157.542969 " clip-rule="nonzero"/></clipPath></defs><g fill="#fbfaf9" fill-opacity="1"><g transform="translate(15.602347, 203.271783)"><g><path d="M 33.839844 -81 L 3.839844 -81 L 3.839844 -80.28125 L 10.320312 -74.039062 L 10.320312 -6.960938 L 3.839844 -0.71875 L 3.839844 0 L 34.078125 0 C 68.398438 0 78.238281 -23.28125 78.238281 -42.480469 C 78.238281 -68.28125 63.238281 -81 33.839844 -81 Z M 33.71875 -2.398438 L 33.71875 -78.839844 L 34.320312 -78.839844 C 49.558594 -78.839844 53.519531 -67.441406 53.519531 -40.558594 C 53.519531 -12.238281 49.320312 -2.398438 36 -2.398438 Z M 33.71875 -2.398438 "/></g></g></g><g fill="#fbfaf9" fill-opacity="1"><g transform="translate(93.24238, 203.271783)"><g><path d="M 24.121094 -81 L 24.121094 -80.28125 L 29.28125 -65.761719 L 0.839844 -0.71875 L 0.839844 0 L 31.558594 0 L 31.558594 -0.71875 C 26.160156 -6.839844 23.160156 -16.679688 22.921875 -28.078125 L 42.601562 -28.078125 L 49.800781 -6.960938 L 43.679688 -0.71875 L 43.679688 0 L 76.199219 0 L 76.199219 -0.71875 L 48.839844 -81 Z M 22.921875 -30.238281 C 23.160156 -37.921875 24.601562 -46.320312 27.480469 -54.601562 L 30.238281 -62.398438 L 30.960938 -62.398438 L 41.878906 -30.238281 Z M 22.921875 -30.238281 "/></g></g></g><g fill="#fbfaf9" fill-opacity="1"><g transform="translate(166.922413, 203.271783)"><g><path d="M 40.558594 -80.28125 C 56.878906 -69 55.921875 -45.359375 51.480469 -35.640625 L 48.960938 -28.441406 L 48.480469 -28.441406 L 29.398438 -74.039062 L 35.398438 -80.28125 L 35.398438 -81 L 0.839844 -81 L 0.839844 -80.28125 L 37.199219 1.800781 L 38.519531 1.800781 L 73.800781 -80.28125 L 73.800781 -81 L 40.558594 -81 Z M 40.558594 -80.28125 "/></g></g></g><g fill="#fbfaf9" fill-opacity="1"><g transform="translate(238.32244, 203.271783)"><g><path d="M 9.960938 -7.441406 L 3.839844 -0.71875 L 3.839844 0 L 39.601562 0 L 39.601562 -0.71875 L 33.480469 -7.441406 L 33.480469 -73.558594 L 39.601562 -80.28125 L 39.601562 -81 L 3.839844 -81 L 3.839844 -80.28125 L 9.960938 -73.558594 Z M 9.960938 -7.441406 "/></g></g></g><g fill="#fbfaf9" fill-opacity="1"><g transform="translate(278.162457, 203.271783)"><g><path d="M 33.839844 -81 L 3.839844 -81 L 3.839844 -80.28125 L 10.320312 -74.039062 L 10.320312 -6.960938 L 3.839844 -0.71875 L 3.839844 0 L 34.078125 0 C 68.398438 0 78.238281 -23.28125 78.238281 -42.480469 C 78.238281 -68.28125 63.238281 -81 33.839844 -81 Z M 33.71875 -2.398438 L 33.71875 -78.839844 L 34.320312 -78.839844 C 49.558594 -78.839844 53.519531 -67.441406 53.519531 -40.558594 C 53.519531 -12.238281 49.320312 -2.398438 36 -2.398438 Z M 33.71875 -2.398438 "/></g></g></g><g clip-path="url(#122ff59f7f)"><path fill="#231f20" d="M 40.847656 157.542969 L 334.152344 157.542969 L 334.152344 187.5 L 40.847656 187.5 Z M 40.847656 157.542969 " fill-opacity="1" fill-rule="nonzero"/></g><g fill="#fbfaf9" fill-opacity="1"><g transform="translate(103.191747, 174.155847)"><g><path d="M 0.628906 0 L 2.316406 0 L 2.316406 -7.101562 L 2.34375 -7.101562 L 6.21875 0 L 7.972656 0 L 11.824219 -7.101562 L 11.847656 -7.101562 L 11.847656 0 L 13.535156 0 L 13.535156 -8.929688 L 11.082031 -8.929688 L 7.089844 -1.574219 L 7.078125 -1.574219 L 3.058594 -8.929688 L 0.628906 -8.929688 Z M 0.628906 0 "/></g></g></g><g fill="#fbfaf9" fill-opacity="1"><g transform="translate(127.430992, 174.155847)"><g><path d="M 0.628906 0 L 9.632812 0 L 9.632812 -1.273438 L 2.328125 -1.273438 L 2.328125 -4.003906 L 9.003906 -4.003906 L 9.003906 -5.175781 L 2.328125 -5.175781 L 2.328125 -7.644531 L 9.507812 -7.644531 L 9.507812 -8.929688 L 0.628906 -8.929688 Z M 0.628906 0 "/></g></g></g><g fill="#fbfaf9" fill-opacity="1"><g transform="translate(147.390994, 174.155847)"><g><path d="M 5.753906 0.300781 C 8.539062 0.300781 10.402344 -0.855469 10.402344 -2.570312 C 10.402344 -4.003906 9.253906 -4.773438 6.597656 -5.136719 L 4.507812 -5.425781 C 3.109375 -5.617188 2.519531 -5.96875 2.519531 -6.574219 C 2.519531 -7.390625 3.625 -7.957031 5.175781 -7.957031 C 6.722656 -7.957031 8.148438 -7.328125 8.839844 -6.433594 L 9.660156 -7.453125 C 8.863281 -8.5 7.140625 -9.230469 5.164062 -9.230469 C 2.605469 -9.230469 0.792969 -8.183594 0.792969 -6.460938 C 0.792969 -5.074219 1.789062 -4.371094 4.117188 -4.066406 L 6.234375 -3.738281 C 7.945312 -3.5 8.675781 -3.085938 8.675781 -2.417969 C 8.675781 -1.597656 7.542969 -0.996094 5.84375 -0.996094 C 3.765625 -0.996094 1.851562 -1.875 1.195312 -3.148438 L 0.25 -2.140625 C 1.09375 -0.707031 3.273438 0.300781 5.753906 0.300781 Z M 5.753906 0.300781 "/></g></g></g><g fill="#fbfaf9" fill-opacity="1"><g transform="translate(168.118744, 174.155847)"><g><path d="M 8.789062 1.726562 C 7.871094 1.726562 7.304688 1.285156 7.304688 0.566406 L 7.304688 0.300781 C 10.664062 0.0898438 12.90625 -1.789062 12.90625 -4.457031 C 12.90625 -7.277344 10.390625 -9.242188 6.6875 -9.242188 C 2.996094 -9.242188 0.476562 -7.277344 0.476562 -4.457031 C 0.476562 -1.8125 2.65625 0.0507812 5.945312 0.289062 L 5.945312 0.730469 C 5.945312 2.078125 6.964844 2.894531 8.601562 2.894531 C 9.984375 2.894531 11.121094 2.34375 11.734375 1.398438 L 10.992188 0.617188 C 10.453125 1.386719 9.644531 1.726562 8.789062 1.726562 Z M 2.230469 -4.457031 C 2.230469 -6.472656 4.054688 -7.871094 6.6875 -7.871094 C 9.320312 -7.871094 11.15625 -6.472656 11.15625 -4.457031 C 11.15625 -2.441406 9.320312 -1.046875 6.6875 -1.046875 C 4.054688 -1.046875 2.230469 -2.441406 2.230469 -4.457031 Z M 2.230469 -4.457031 "/></g></g></g><g fill="#fbfaf9" fill-opacity="1"><g transform="translate(191.577654, 174.155847)"><g><path d="M 5.652344 0.289062 C 8.789062 0.289062 10.816406 -1.273438 10.816406 -4.066406 L 10.816406 -8.929688 L 9.066406 -8.929688 L 9.066406 -4.117188 C 9.066406 -2.117188 7.71875 -1.109375 5.667969 -1.109375 C 3.625 -1.109375 2.265625 -2.117188 2.265625 -4.117188 L 2.265625 -8.929688 L 0.503906 -8.929688 L 0.503906 -4.066406 C 0.503906 -1.273438 2.53125 0.289062 5.652344 0.289062 Z M 5.652344 0.289062 "/></g></g></g><g fill="#fbfaf9" fill-opacity="1"><g transform="translate(212.972462, 174.155847)"><g><path d="M 0.628906 0 L 2.367188 0 L 2.367188 -8.929688 L 0.628906 -8.929688 Z M 0.628906 0 "/></g></g></g><g fill="#fbfaf9" fill-opacity="1"><g transform="translate(226.047932, 174.155847)"><g><path d="M 4.078125 0 L 5.832031 0 L 5.832031 -7.554688 L 9.835938 -7.554688 L 9.835938 -8.929688 L 0.0742188 -8.929688 L 0.0742188 -7.554688 L 4.078125 -7.554688 Z M 4.078125 0 "/></g></g></g><g fill="#fbfaf9" fill-opacity="1"><g transform="translate(246.033114, 174.155847)"><g><path d="M 0.628906 0 L 2.367188 0 L 2.367188 -8.929688 L 0.628906 -8.929688 Z M 0.628906 0 "/></g></g></g><g fill="#fbfaf9" fill-opacity="1"><g transform="translate(259.108583, 174.155847)"><g><path d="M 6.636719 0.289062 C 9.53125 0.289062 11.761719 -1.046875 12.367188 -3.148438 L 10.742188 -3.527344 C 10.289062 -2.027344 8.714844 -1.070312 6.660156 -1.070312 C 3.953125 -1.070312 2.230469 -2.390625 2.230469 -4.457031 C 2.230469 -6.523438 3.804688 -7.84375 6.269531 -7.84375 C 8.058594 -7.84375 9.457031 -7 9.886719 -5.667969 L 11.472656 -6.132812 C 10.816406 -8.007812 8.777344 -9.207031 6.234375 -9.207031 C 2.707031 -9.207031 0.476562 -7.355469 0.476562 -4.457031 C 0.476562 -1.535156 2.871094 0.289062 6.636719 0.289062 Z M 6.636719 0.289062 "/></g></g></g></svg>