<?xml version="1.0" standalone="no"?>
<!DOCTYPE svg PUBLIC "-//W3C//DTD SVG 20010904//EN"
 "http://www.w3.org/TR/2001/REC-SVG-20010904/DTD/svg10.dtd">
<svg version="1.0" xmlns="http://www.w3.org/2000/svg"
 width="700.000000pt" height="700.000000pt" viewBox="0 0 700.000000 700.000000"
 preserveAspectRatio="xMidYMid meet">
<metadata>
Created by potrace 1.14, written by Peter Selinger 2001-2017
</metadata>
<g transform="translate(0.000000,700.000000) scale(0.100000,-0.100000)"
fill="#000000" stroke="none">
<path d="M360 4434 c0 -3 28 -33 63 -67 l62 -62 -1 -623 0 -623 -63 -63 c-51
-51 -59 -64 -44 -67 30 -7 633 -3 698 5 102 12 262 61 315 96 14 9 44 29 66
44 54 35 131 117 173 184 18 28 40 52 50 53 54 3 227 4 233 2 4 -2 -7 -33 -24
-70 -27 -61 -49 -115 -49 -120 0 -1 -16 -34 -34 -72 -43 -88 -52 -121 -34
-122 66 -5 543 -2 552 3 6 4 1 17 -16 37 -14 17 -37 54 -50 83 -44 93 -88 257
-70 259 4 0 95 1 200 2 163 2 194 0 199 -13 3 -8 23 -66 45 -129 l40 -115 -63
-63 c-57 -58 -60 -63 -38 -64 14 -1 152 -2 307 -3 212 -1 283 2 283 11 0 6
-27 91 -60 189 -33 97 -60 180 -60 183 0 5 504 7 571 2 10 -1 45 -69 104 -203
48 -112 92 -207 96 -212 15 -17 28 6 116 210 47 110 87 201 89 203 9 10 614 6
617 -4 2 -5 3 -63 2 -127 l-1 -117 -59 -61 c-34 -37 -54 -65 -48 -68 13 -8
650 -8 658 -1 5 6 -9 24 -73 94 l-37 40 -1 122 c0 103 2 122 15 125 13 3 226
2 281 -1 13 -1 16 -21 15 -128 l-1 -128 -62 -59 c-34 -32 -60 -61 -58 -65 5
-8 637 -6 709 3 100 12 209 44 297 88 109 53 227 168 282 273 99 189 126 443
73 660 -26 103 -81 202 -154 275 -62 61 -87 77 -243 151 -9 5 -63 18 -120 30
-92 20 -140 22 -463 25 -198 2 -366 1 -374 -1 -9 -4 7 -26 51 -68 l64 -62 0
-215 -1 -215 -155 -3 -156 -2 1 215 0 215 57 62 c31 35 55 65 52 69 -5 8 -664
9 -664 0 0 -3 21 -28 46 -56 26 -27 52 -59 58 -70 8 -14 12 -86 11 -225 l0
-205 -188 -3 c-103 -1 -187 0 -187 4 0 5 120 288 165 389 51 114 65 149 65
160 0 10 -66 13 -310 13 -170 -1 -310 -5 -310 -9 0 -5 4 -9 8 -9 5 0 36 -27
70 -61 99 -99 161 -244 177 -421 l7 -68 -141 0 -141 0 -21 48 c-27 60 -27 61
-99 232 -33 79 -60 149 -60 154 0 6 25 36 56 67 48 48 53 58 38 62 -21 6 -634
7 -634 1 0 -4 155 -358 209 -477 17 -38 31 -73 31 -78 0 -5 -112 -9 -262 -9
l-263 0 -96 283 -95 282 -227 1 c-125 1 -229 -2 -232 -6 -4 -7 3 -30 63 -195
l29 -80 -61 -142 -61 -143 -211 0 -211 0 -13 58 c-58 266 -227 419 -540 488
-61 14 -146 17 -452 20 -208 2 -378 1 -378 -2z m723 -66 c118 -50 186 -212
201 -473 1 -19 -6 -20 -181 -23 l-183 -2 0 258 c0 142 3 262 7 266 12 11 103
-4 156 -26z m4898 1 c58 -25 100 -68 134 -137 29 -57 60 -196 68 -299 l5 -63
-184 0 -184 0 1 265 2 265 55 -6 c31 -3 77 -14 103 -25z m-3633 -366 c51 -149
56 -133 -38 -133 -61 0 -81 3 -78 13 3 6 20 56 39 110 18 53 36 97 40 97 4 0
20 -39 37 -87z m-1086 -724 c-4 -42 -29 -122 -53 -169 -44 -86 -107 -126 -216
-136 l-73 -7 0 174 0 174 173 -1 172 0 -3 -35z m4901 2 c-3 -50 -41 -154 -73
-203 -41 -62 -110 -98 -200 -105 l-69 -6 0 171 c-1 201 -27 177 194 176 l150
-1 -2 -32z"/>
</g>
</svg>
